<svg xmlns="http://www.w3.org/2000/svg" viewBox="0 0 512 512">
  <path d="M498.347 117.973c-18.773-18.773-51.2-18.773-68.267 0L256 290.346 83.627 117.973c-8.534-8.534-22.186-13.653-34.133-13.653-13.653 0-25.6 5.12-34.133 13.653C5.12 128.213 0 140.159 0 153.813s5.12 25.6 13.653 34.133l208.213 206.507c8.534 8.534 22.187 13.653 34.133 13.653 11.947 0 25.6-5.12 34.133-13.653L498.347 186.24C506.88 177.706 512 164.053 512 152.106s-5.12-25.6-13.653-34.133zm-25.6 44.373L266.24 370.56c-5.12 5.12-15.36 5.12-20.48 0L39.253 164.053c-3.413-3.413-5.12-6.827-5.12-10.24s1.706-6.827 5.12-10.24 6.827-5.12 10.24-5.12 6.827 1.707 10.24 5.12l184.32 184.32c3.413 3.413 6.827 5.12 11.946 5.12 5.12 0 8.534-1.707 11.947-5.12l184.32-186.027c5.12-5.12 15.36-5.12 20.48 0 3.413 3.413 5.12 6.827 5.12 10.24.001 5.12-1.706 8.533-5.119 10.24z"/>
</svg>
